#!OML:ASF Y:\EmotionMaleHayes\Project 1\Capture day 1\Session 1\Male1.ASF
:FULLY-SPECIFIED
:DEGREES
2404
root 9.74053 16.9865 12.1018 173.068 197.308 -180.327
lowerback 5.90493 0.159249 -2.85797
upperback -2.14 0.0219177 0.795865
thorax -5.54449 0.126406 2.43218
lowerneck -25.5574 -4.16395 -1.95282
upperneck 25.974 -7.12519 5.86695
head 13.3154 -2.49289 1.2814
rclavicle -5.94133e-014 1.11195e-015
rhumerus -41.7049 17.5975 -89.7672
rradius 58.1566
rwrist 2.84759
rhand -14.384 -27.3558
rfingers 7.12502
rthumb 11.7589 -57.0057
lclavicle -5.94133e-014 1.11195e-015
lhumerus -39.0886 -19.3469 90.9959
lradius 29.1308
lwrist -22.6476
lhand -14.8217 -26.3908
lfingers 7.12502
lthumb 11.3367 3.28282
rfemur 15.2729 -12.8216 22.328
rtibia 6.66529
rfoot -20.246 -1.86706
rtoes 26.2687
lfemur 5.36798 9.73542 -6.11509
ltibia 47.7566
lfoot -11.1179 1.70282
ltoes -10.9233
2405
root 9.72563 16.99 12.162 173.422 198.015 -180.389
lowerback 5.85048 0.279466 -2.48882
upperback -2.17932 0.207777 0.686922
thorax -5.56325 0.203814 2.09096
lowerneck -25.533 -4.25879 -1.93567
upperneck 26.2978 -7.31078 5.89361
head 13.4553 -2.56153 1.25547
rclavicle 1.61916e-014 3.3048e-015
rhumerus -41.5136 18.3539 -89.8717
rradius 59.3007
rwrist 2.43101
rhand -14.6388 -27.2764
rfingers 7.12502
rthumb 11.5131 -56.9402
lclavicle 1.61916e-014 3.3048e-015
lhumerus -39.0936 -16.0888 88.4521
lradius 28.3908
lwrist -22.673
lhand -15.2207 -26.2102
lfingers 7.12502
lthumb 10.9519 3.48419
rfemur 15.2294 -12.6851 22.3579
rtibia 6.47817
rfoot -19.9954 -1.33365
rtoes 24.8749
lfemur 4.26471 9.56923 -6.25978
ltibia 47.4544
lfoot -11.9371 2.67837
ltoes -10.7338
2406
root 9.70168 16.9963 12.2291 173.753 198.626 -180.515
lowerback 5.71669 0.405201 -2.16454
upperback -2.1816 0.39887 0.573479
thorax -5.49554 0.283776 1.77042
lowerneck -27.0048 -5.59069 -2.71211
upperneck 27.9323 -9.15698 6.12985
head 14.6083 -3.32216 1.08864
rclavicle 1.53437e-014 -4.07509e-015
rhumerus -41.3711 18.9203 -90.0446
rradius 60.3917
rwrist 1.79466
rhand -15.3233 -27.351
rfingers 7.12502
rthumb 10.8529 -57.0506
lclavicle 1.53437e-014 -4.07509e-015
lhumerus -39.4237 -13.7913 86.2542
lradius 28.0329
lwrist -21.9004
lhand -15.6017 -25.8038
lfingers 7.12502
lthumb 10.5844 3.90968
rfemur 15.397 -12.4426 22.5635
rtibia 6.07997
rfoot -20.1373 -0.630777
rtoes 28.2645
lfemur 3.37211 9.16522 -6.29498
ltibia 46.87
lfoot -12.7196 3.06512
ltoes -8.80149
2407
root 9.66705 17.0027 12.2928 173.938 199.13 -180.459
lowerback 5.71365 0.484594 -2.27349
upperback -2.16048 0.493201 0.509274
thorax -5.47676 0.33259 1.75505
lowerneck -25.3965 -4.40599 -1.55327
upperneck 26.8401 -7.64517 5.61068
head 13.6394 -2.69862 1.02001
rclavicle -1.69712e-014 -1.35174e-014
rhumerus -41.2075 19.4298 -90.1542
rradius 61.4412
rwrist 1.00562
rhand -15.4847 -27.5291
rfingers 7.12502
rthumb 10.6973 -57.2368
lclavicle -1.69712e-014 -1.35174e-014
lhumerus -40.0444 -12.2178 84.5573
lradius 28.0562
lwrist -20.1927
lhand -15.8105 -24.5089
lfingers 7.12502
lthumb 10.383 5.21478
rfemur 15.7498 -11.9085 22.7058
rtibia 5.5234
rfoot -19.9935 -0.541605
rtoes 27.7399
lfemur 2.54809 8.45567 -6.64596
ltibia 46.1391
lfoot -13.3664 3.83004
ltoes -10.3243
2408
root 9.63451 17.0053 12.3513 174.141 199.864 -180.233
lowerback 5.68806 0.633319 -2.54688
upperback -2.14101 0.667609 0.442
thorax -5.45335 0.426586 1.82073
lowerneck -25.5311 -4.59296 -1.64382
upperneck 27.2729 -7.86187 5.43411
head 13.8531 -2.81347 0.921592
rclavicle -1.96548e-014 -1.59028e-015
rhumerus -41.0513 20.0593 -90.1918
rradius 62.5363
rwrist 0.049035
rhand -15.517 -27.9363
rfingers 7.12502
rthumb 10.666 -57.6455
lclavicle -1.96548e-014 -1.59028e-015
lhumerus -40.8002 -11.1396 83.0817
lradius 28.2578
lwrist -18.0764
lhand -15.6392 -23.7609
lfingers 7.12502
lthumb 10.5482 5.95438
rfemur 15.8944 -11.2611 22.6797
rtibia 5.14839
rfoot -19.8777 -0.273061
rtoes 27.0859
lfemur 1.64537 7.8538 -7.239
ltibia 45.3803
lfoot -14.0228 4.90212
ltoes -11.4696
2409
root 9.6132 17.0097 12.4081 174.325 200.602 -180.115
lowerback 5.75539 0.784951 -2.50454
upperback -2.10213 0.866267 0.329555
thorax -5.45854 0.520837 1.65867
lowerneck -25.574 -4.9738 -2.38724
upperneck 27.5642 -8.33198 6.00475
head 14.0797 -3.00458 1.17896
rclavicle 1.49089e-016 1.02374e-014
rhumerus -40.9048 20.6555 -90.2262
rradius 63.5245
rwrist -0.727054
rhand -15.6618 -28.149
rfingers 7.12502
rthumb 10.5264 -57.8654
lclavicle 1.49089e-016 1.02374e-014
lhumerus -41.3318 -9.7106 81.158
lradius 28.0993
lwrist -16.299
lhand -15.1224 -24.9772
lfingers 7.12502
lthumb 11.0467 4.7121
rfemur 16.0059 -10.7772 22.6421
rtibia 4.89444
rfoot -19.7087 0.226532
rtoes 26.8508
lfemur 0.787244 7.15593 -7.68964
ltibia 44.6249
lfoot -15.0257 5.19302
ltoes -6.78061
2410
root 9.59582 17.0141 12.4642 174.494 201.263 -180.262
lowerback 5.9639 0.878647 -2.22242
upperback -2.04117 1.00817 0.304718
thorax -5.51413 0.580724 1.45717
lowerneck -25.4151 -5.25661 -2.45743
upperneck 27.6785 -8.70448 5.92382
head 14.1139 -3.18636 1.08626
rclavicle -4.45899e-014 -3.08116e-015
rhumerus -40.682 21.209 -90.1981
rradius 64.381
rwrist -1.51992
rhand -15.6399 -28.3227
rfingers 7.12502
rthumb 10.5476 -58.038
lclavicle -4.45899e-014 -3.08116e-015
lhumerus -41.7961 -8.14975 79.4688
lradius 27.9887
lwrist -14.7092
lhand -15.7962 -24.0912
lfingers 7.12502
lthumb 10.3967 5.63181
rfemur 16.1892 -10.5484 22.7788
rtibia 4.72116
rfoot -19.5285 0.710576
rtoes 25.3724
lfemur 0.0308669 6.2813 -7.78674
ltibia 43.7891
lfoot -16.0958 5.05432
ltoes -1.9191
2411
root 9.57768 17.0198 12.5211 174.659 201.976 -180.486
lowerback 6.21962 0.967279 -1.99747
upperback -1.96384 1.14417 0.380607
thorax -5.58129 0.641476 1.39196
lowerneck -25.2898 -5.43274 -2.71063
upperneck 27.8218 -8.8565 5.87466
head 14.167 -3.28667 1.08042
rclavicle 1.64991e-014 1.68967e-015
rhumerus -40.5089 21.9895 -90.1292
rradius 65.2882
rwrist -2.73606
rhand -15.8326 -28.8329
rfingers 7.12502
rthumb 10.3617 -58.5576
lclavicle 1.64991e-014 1.68967e-015
lhumerus -42.3934 -6.80633 78.0402
lradius 27.8981
lwrist -13.1472
lhand -16.9224 -23.02
lfingers 7.12502
lthumb 9.31025 6.75441
rfemur 16.3881 -10.3217 22.9907
rtibia 4.60656
rfoot -19.3243 1.40357
rtoes 25.7143
lfemur -0.607034 5.5686 -7.71524
ltibia 42.7462
lfoot -16.7457 5.27902
ltoes -2.5809
2412
root 9.56478 17.028 12.5798 174.764 202.75 -180.615
lowerback 6.61445 1.06607 -1.61491
upperback -1.93179 1.2941 0.239648
thorax -5.76599 0.700367 1.00733
lowerneck -25.1307 -5.53737 -2.85385
upperneck 27.9444 -9.03724 6.0711
head 14.2184 -3.35348 1.14977
rclavicle -3.32716e-014 -3.57812e-015
rhumerus -40.5013 22.5869 -90.3773
rradius 66.2277
rwrist -4.04675
rhand -16.2141 -29.2312
rfingers 7.12502
rthumb 9.99359 -58.9739
lclavicle -3.32716e-014 -3.57812e-015
lhumerus -43.2838 -6.53572 76.81
lradius 28.1573
lwrist -11.0859
lhand -17.2152 -22.6986
lfingers 7.12502
lthumb 9.02766 7.08824
rfemur 16.6079 -10.0779 23.0588
rtibia 4.52574
rfoot -19.1267 2.18066
rtoes 27.7686
lfemur -1.16459 4.84453 -7.85368
ltibia 41.5903
lfoot -17.1438 6.10758
ltoes -6.43258
2413
root 9.55725 17.0289 12.6392 174.881 203.536 -180.703
lowerback 6.97533 1.19593 -1.17731
upperback -1.89007 1.49028 0.0356927
thorax -5.91642 0.777779 0.519605
lowerneck -25.0586 -5.70149 -2.79647
upperneck 28.1429 -9.3332 6.08463
head 14.3049 -3.46986 1.08759
rclavicle 2.37548e-014 3.57812e-015
rhumerus -40.3633 22.8863 -90.5462
rradius 66.9849
rwrist -5.0173
rhand -16.2027 -29.2967
rfingers 7.12502
rthumb 10.0046 -59.0389
lclavicle 2.37548e-014 3.57812e-015
lhumerus -44.139 -6.82708 75.7853
lradius 28.491
lwrist -8.94511
lhand -16.8994 -22.8287
lfingers 7.12502
lthumb 9.3324 6.94474
rfemur 16.7789 -9.97048 22.9914
rtibia 4.4998
rfoot -19.2952 2.58758
rtoes 27.3556
lfemur -1.74832 3.9094 -8.11439
ltibia 40.4507
lfoot -17.7158 6.77879
ltoes -6.96507
